<?xml version="1.0" standalone="no"?>
<!DOCTYPE svg PUBLIC "-//W3C//DTD SVG 20010904//EN"
 "http://www.w3.org/TR/2001/REC-SVG-20010904/DTD/svg10.dtd">
<svg version="1.0" xmlns="http://www.w3.org/2000/svg"
 width="1500.000000pt" height="1000.000000pt" viewBox="0 0 1500.000000 1000.000000"
 preserveAspectRatio="xMidYMid meet">
<metadata>
Created by potrace 1.16, written by Peter Selinger 2001-2019
</metadata>
<g transform="translate(0.000000,1000.000000) scale(0.100000,-0.100000)"
fill="#000000" stroke="none">
<path d="M7410 7570 c-25 -5 -70 -9 -101 -9 -31 -1 -78 -8 -105 -16 -27 -8
-64 -15 -83 -15 -19 0 -48 -4 -65 -9 -17 -5 -58 -17 -91 -26 -163 -43 -245
-72 -395 -137 -285 -124 -549 -305 -776 -532 -118 -119 -297 -329 -312 -366
-3 -8 -22 -37 -41 -65 -65 -93 -241 -440 -241 -475 0 -6 -4 -18 -9 -28 -22
-45 -80 -230 -91 -292 -5 -25 -13 -58 -19 -73 -6 -16 -11 -42 -11 -59 0 -17
-4 -47 -9 -67 -6 -20 -17 -117 -26 -216 -13 -147 -14 -205 -5 -315 18 -224 36
-359 60 -455 39 -157 57 -219 76 -262 8 -17 14 -38 14 -46 0 -9 5 -19 10 -22
6 -3 10 -13 10 -21 0 -9 11 -40 25 -70 14 -30 25 -57 25 -60 0 -3 22 -49 48
-103 93 -185 211 -364 347 -526 92 -109 339 -345 362 -345 7 0 13 -4 13 -9 0
-12 188 -143 290 -202 113 -66 278 -145 385 -184 39 -14 79 -29 90 -34 30 -13
164 -52 210 -61 116 -23 163 -33 195 -40 64 -15 323 -35 445 -34 106 1 265 16
450 44 63 9 144 28 235 55 30 9 64 19 75 22 11 3 34 11 52 19 17 8 35 14 40
14 28 -1 260 107 436 204 97 53 235 152 362 260 66 56 275 263 275 271 0 2 10
15 23 28 28 30 38 43 117 152 71 99 71 98 134 205 25 41 50 80 56 87 5 7 10
18 10 24 0 7 7 20 16 30 38 43 24 44 -318 39 l-324 -5 -89 -110 c-130 -162
-241 -268 -417 -399 -47 -35 -148 -96 -158 -96 -5 0 -15 -6 -22 -13 -33 -33
-315 -153 -418 -178 -19 -4 -62 -15 -95 -24 -206 -54 -551 -74 -710 -40 -38 8
-82 15 -97 15 -32 0 -105 16 -163 36 -23 8 -50 14 -61 14 -11 0 -24 3 -28 7
-7 7 -17 10 -68 20 -16 3 -28 9 -28 14 0 5 -10 9 -23 9 -13 0 -26 3 -30 6 -3
4 -41 23 -84 43 -284 133 -543 331 -718 551 -33 41 -66 81 -72 88 -20 21 -103
152 -135 212 -16 30 -33 62 -38 70 -41 69 -125 280 -140 351 -3 19 -10 41 -14
47 -26 43 -59 288 -63 482 -4 178 8 331 36 440 5 19 15 58 21 85 6 28 15 66
20 85 10 44 65 192 83 228 8 15 32 63 54 107 48 96 76 148 83 155 3 3 26 37
53 75 89 132 112 160 232 281 121 122 178 169 315 261 89 60 320 183 343 183
9 0 17 5 17 10 0 6 9 10 21 10 11 0 33 6 47 14 35 19 192 66 219 66 11 0 36 6
54 14 19 7 61 14 94 15 33 2 65 7 72 12 15 13 472 5 572 -9 41 -6 79 -16 85
-22 5 -5 24 -10 41 -10 29 0 111 -23 147 -41 10 -5 26 -9 35 -9 10 0 29 -6 43
-13 14 -7 48 -21 75 -31 28 -10 54 -23 60 -27 5 -5 19 -9 32 -9 13 0 23 -4 23
-9 0 -5 12 -14 28 -20 48 -18 236 -132 288 -174 246 -200 347 -304 479 -495
12 -16 655 -8 655 9 0 16 -162 292 -181 309 -3 3 -9 12 -12 20 -39 85 -309
381 -462 507 -49 40 -97 79 -105 86 -46 38 -135 99 -205 140 -44 26 -87 52
-95 57 -8 5 -58 30 -110 55 -52 26 -103 50 -113 56 -38 21 -169 69 -187 69
-11 0 -20 5 -20 10 0 6 -10 10 -23 10 -13 0 -32 7 -43 15 -10 8 -35 15 -55 15
-20 0 -39 3 -43 7 -9 10 -101 31 -184 43 -35 5 -68 12 -74 16 -32 20 -527 39
-608 24z"/>
<path d="M6398 5020 c-1 -599 -2 -1105 -2 -1122 l-1 -33 263 -3 262 -2 0 454
c0 250 3 461 6 470 13 33 30 12 81 -92 121 -247 313 -643 348 -717 58 -124 35
-115 281 -115 l212 0 30 63 c16 34 48 101 71 149 22 48 41 92 41 97 0 6 5 11
10 11 6 0 10 6 10 14 0 8 18 50 40 95 22 44 40 88 40 96 0 8 5 15 10 15 6 0
10 8 10 18 0 10 5 23 11 29 6 6 37 71 70 144 62 139 86 176 102 160 5 -5 8
-186 8 -436 -2 -313 1 -431 10 -441 9 -11 58 -14 255 -14 l244 0 5 23 c3 12 4
517 3 1122 l-3 1100 -245 0 -245 0 -57 -115 c-32 -63 -69 -144 -84 -180 -15
-36 -34 -72 -41 -81 -7 -8 -13 -21 -13 -28 0 -6 -25 -62 -55 -125 -30 -62 -55
-118 -55 -124 0 -7 -4 -12 -9 -12 -5 0 -12 -13 -16 -30 -4 -16 -11 -32 -16
-35 -5 -4 -9 -15 -9 -26 0 -10 -4 -19 -10 -19 -5 0 -10 -5 -10 -11 0 -6 -13
-39 -29 -73 -16 -33 -43 -92 -61 -131 -35 -77 -90 -193 -172 -360 -29 -60 -58
-111 -64 -113 -7 -1 -28 30 -47 70 -121 253 -171 353 -179 356 -4 2 -8 11 -8
20 0 8 -13 39 -30 69 -16 29 -30 60 -30 68 0 8 -4 15 -10 15 -5 0 -10 6 -10
13 0 7 -32 78 -71 158 -39 79 -75 153 -80 164 -5 11 -13 27 -18 35 -11 19
-142 290 -189 390 -55 120 -28 110 -309 110 l-243 0 -2 -1090z"/>
</g>
</svg>
